<?xml version="1.0" encoding="UTF-8" standalone="no"?>
<!-- Created with Inkscape (http://www.inkscape.org/) -->

<svg
   width="512"
   height="512"
   viewBox="0 0 512 512"
   version="1.1"
   id="svg1"
   xml:space="preserve"
   sodipodi:docname="ELViewerLight.svg"
   inkscape:version="1.3.2 (091e20ef0f, 2023-11-25, custom)"
   xmlns:inkscape="http://www.inkscape.org/namespaces/inkscape"
   xmlns:sodipodi="http://sodipodi.sourceforge.net/DTD/sodipodi-0.dtd"
   xmlns="http://www.w3.org/2000/svg"
   xmlns:svg="http://www.w3.org/2000/svg"><sodipodi:namedview
     id="namedview1"
     pagecolor="#2e2e2e"
     bordercolor="#000000"
     borderopacity="0.25"
     inkscape:showpageshadow="2"
     inkscape:pageopacity="0.0"
     inkscape:pagecheckerboard="0"
     inkscape:deskcolor="#000000"
     inkscape:document-units="px"
     inkscape:zoom="0.60352669"
     inkscape:cx="0"
     inkscape:cy="293.27618"
     inkscape:window-width="1876"
     inkscape:window-height="994"
     inkscape:window-x="0"
     inkscape:window-y="0"
     inkscape:window-maximized="1"
     inkscape:current-layer="g1" /><defs
     id="defs1"><inkscape:perspective
       sodipodi:type="inkscape:persp3d"
       inkscape:vp_x="325.1194 : 364.54469 : 1"
       inkscape:vp_y="0 : 1000 : 0"
       inkscape:vp_z="403.3039 : -55.208435 : 1"
       inkscape:persp3d-origin="203.22197 : 83.062551 : 1"
       id="perspective6" /><inkscape:perspective
       sodipodi:type="inkscape:persp3d"
       inkscape:vp_x="330.31856 : 375.7334 : 1"
       inkscape:vp_y="0 : 1000 : 0"
       inkscape:vp_z="727.0926 : 446.96264 : 1"
       inkscape:persp3d-origin="265.58835 : 27.699091 : 1"
       id="perspective6-6" /></defs><g
     inkscape:label="Layer 1"
     inkscape:groupmode="layer"
     id="layer1"><path
       d="m 252.02852,30.618557 c 17.18676,7.92054 26.91348,13.642091 37.72905,29.786094 C 275.4452,59.617524 266.33939,54.229954 256,44.518735 l 7.94296,13.900177 C 248.14626,55.066705 229.77708,49.397161 224.22817,32.604297 L 256,44.518735 252.02852,30.618557 m 55.60071,23.828876 h 1.98574 l -3.97148,-15.885917 c 10.93314,5.159011 21.38185,12.271195 25.81461,23.828875 h 1.98574 L 331.4581,46.504474 c 16.38073,9.783322 20.36269,21.961506 23.82888,39.714792 h 1.98574 l -1.98574,-31.771833 h 1.98574 c 10.50883,17.826997 17.8713,28.542961 17.87166,49.643487 L 359.25846,86.219266 C 346.07053,91.982081 338.51395,72.495443 335.42958,62.390391 h -1.98574 l 5.95722,15.885917 c -10.64473,-2.1222 -18.27676,-6.417295 -23.82887,-15.885917 h -1.98574 l 1.98574,5.957219 c -19.51015,-4.690377 -31.5433,-15.415237 -39.71479,-33.757573 12.25229,2.486543 25.07137,9.085275 31.77183,19.857396 M 158.69876,42.532995 c 7.38703,3.206413 8.77465,6.377242 5.95722,13.900177 l 5.95722,7.942959 -15.88592,-7.942959 -5.95722,21.843136 13.90018,-1.98574 -11.91444,7.942959 1.98574,7.942958 13.90018,-7.942958 1.98574,1.985739 -5.95722,11.914438 9.9287,-5.957219 c 10.15322,25.628965 -13.46022,18.170235 -29.7861,21.843135 v 1.98574 c 15.1426,-1.1943 19.60088,2.28296 19.8574,17.87165 l -3.97148,-5.95721 c -13.27957,2.4111 -22.88503,2.84669 -33.75757,-5.95722 2.5115,13.82722 10.06627,19.34781 23.82887,19.85739 -16.83865,29.34915 -39.11917,-6.38159 -39.71479,-25.81461 h -1.98574 c 0.35297,24.72303 27.84587,52.24596 3.97148,73.47236 l 5.95722,-15.88591 -11.91444,-5.95722 3.97148,-5.95722 c -9.675595,3.33346 -12.681508,10.0567 -13.900177,19.8574 l 5.957217,-1.98574 1.98574,15.88591 -7.942957,-3.97148 5.957217,23.82888 C 86.059691,202.13836 84.771602,183.65381 91.183614,165.64885 L 63.38326,183.5205 v -27.80035 h -1.98574 c -1.587738,23.83213 -16.030856,39.29626 -39.714792,41.70053 l 11.914438,-15.88591 11.914437,-7.94296 -19.857396,3.97148 c 3.510391,-7.7873 15.846421,-23.27939 23.88402,-26.86265 6.139807,-2.73723 12.28865,-4.1921 13.845033,3.03377 h 1.985739 l 5.957219,-13.90018 -17.872172,6.28999 -15.636429,0.23621 -14.149149,11.34546 C 29.518457,139.0975 42.657202,132.43654 61.39752,131.89128 v -1.98574 C 48.622106,129.87793 39.258569,129.20131 31.611426,117.9911 l 25.814615,1.98574 V 117.9911 C 45.63468,113.33261 41.982448,104.31982 41.540124,92.176485 60.16241,102.85801 69.213312,88.846519 77.283437,72.319089 l -9.928698,7.942958 C 71.213965,68.015594 80.096217,58.444429 91.183614,52.13077 c 5.967743,-3.398336 13.941936,-8.694641 15.885916,0.330923 12.13775,-7.205276 24.32859,-9.420249 37.72905,-13.081953 6.05716,-1.655154 12.95022,-4.285802 13.90018,3.153255 m 81.41532,11.914438 -29.78609,-1.98574 v 1.98574 l 7.94296,3.971479 c -15.11085,4.110799 -39.50663,3.253992 -45.67201,-13.900177 l 37.72905,7.942958 v -1.98574 L 196.42781,38.561516 c 18.6068,3.18e-4 29.74247,2.764646 43.68627,15.885917 m -111.20141,-5.957219 -1.98574,7.942958 11.91443,-5.957219 v -1.985739 h -9.92869 m -23.82888,3.971479 1.98574,1.98574 -1.98574,-1.98574 m 30.44804,3.309553 0.66187,1.323873 -0.66187,-1.323873 m 174.08314,-1.323813 1.98574,7.942958 h 1.98574 l -3.97148,-7.942958 M 246.0713,58.418912 256,64.376131 v 1.985739 l -9.9287,-7.942958 m -121.13011,1.985739 v 3.97148 l 3.97148,-3.97148 h -3.97148 m 95.3155,0 13.90017,7.942959 v 1.985739 l -13.90017,-9.928698 m -103.25846,1.98574 v 7.942958 h 1.98574 l -1.98574,-7.942958 m 19.85739,0 -7.94295,7.942958 v 1.98574 l 13.90017,3.971479 -5.95722,-13.900177 m 154.88769,11.914438 -13.90017,-7.942959 13.90017,7.942959 M 99.126573,68.34761 89.197875,72.319089 103.09805,78.276308 99.126573,68.34761 m 99.286977,3.971479 -7.94296,-1.98574 7.94296,1.98574 m 121.13012,0 13.90017,21.843136 -9.92869,-17.871657 17.87165,7.942959 1.98574,15.885913 -9.9287,-5.957215 19.8574,13.900175 -7.94296,-17.871655 c 12.34701,4.050572 14.72422,14.225365 17.87166,25.814615 l -5.95722,-3.97148 -29.78609,-3.97148 v -1.98574 l 9.92869,-1.98574 v -1.98574 l -23.82887,-3.971476 11.91444,-5.957219 v -1.98574 C 314.29468,87.854801 306.63394,78.234806 301.67201,68.34761 l 17.87166,3.971479 m 65.5294,-3.971479 13.90018,45.67201 h 1.98574 c 0.0776,-13.21466 1.4792,-24.717136 11.91444,-33.757573 l 9.9287,27.800353 c -6.75368,7.24322 -2.80651,10.1148 5.95722,9.9287 l 5.95721,9.9287 c 0.67782,-9.85273 3.11279,-16.79406 11.91444,-21.84314 -3.20391,14.20489 -1.01638,26.2264 3.97148,39.71479 l 15.88592,-21.84313 -3.97148,25.81461 17.87165,-7.94296 -11.91443,41.70053 21.84313,-15.88591 c -8.23553,13.31498 -8.67694,40.05082 -25.81461,43.68627 v 1.98574 l 13.90018,-1.98574 c -0.85542,9.43345 -7.88139,25.39076 0,31.77183 l -1.98574,5.95722 9.92869,-1.98574 c -6.81839,10.34378 -23.8525,44.13676 -37.72905,21.84314 h 5.95722 v -1.98574 l -3.97148,-7.94296 1.98574,-27.80035 v -1.98574 l -5.95722,-17.87166 -5.95722,-1.98574 3.97148,-11.91444 -5.95722,1.98574 -7.94296,-1.98574 5.95722,-9.9287 -15.88591,15.88592 v 1.98574 l 11.91443,5.95722 v 3.97148 l -5.95721,1.98574 3.97147,5.95722 -5.95721,1.98574 3.97148,3.97148 v 1.98574 c -6.47922,8.87371 -5.46508,13.83258 -1.98574,23.82887 -7.4784,5.36174 -4.95296,10.05884 -1.98574,17.87166 l -15.88592,3.97148 -17.87166,-23.82888 c 26.4499,8.47158 12.32575,-29.64834 17.87166,-41.70053 l -11.91444,-1.98574 c 8.6998,-20.46487 0.82508,-24.53068 -19.85739,-21.84314 l 9.92869,-11.91443 -23.82887,-3.97148 v -1.98574 l 13.90018,-7.94296 -33.75758,-19.8574 c 14.66199,-5.90291 36.7208,-7.52001 45.67201,7.94296 h 1.98574 l -1.98574,-25.81461 17.87166,3.97148 -3.97148,-13.90018 h -1.98574 v 9.9287 C 379.08921,111.51757 369.01192,91.195927 385.07307,68.34761 m -307.789633,1.985739 1.98574,1.98574 -1.98574,-1.98574 M 315.57219,90.190745 v 1.98574 C 298.78153,90.126824 283.06595,81.642831 265.9287,79.757749 c -31.68869,-3.485708 -59.79835,4.50747 -89.35828,14.404476 8.03356,-10.863505 18.02739,-10.048141 29.78609,-13.606268 33.89556,-10.256603 77.58783,-6.817978 109.21568,9.634788 M 85.226395,76.290568 C 79.75187,91.599469 71.329217,104.58148 55.440301,110.04814 v 1.98574 C 73.384816,110.8002 90.53253,99.949047 99.126573,84.233527 L 85.226395,76.290568 m 59.572185,0 1.98574,1.98574 -1.98574,-1.98574 M 95.155093,98.133704 C 116.0244,83.107712 125.79039,77.147772 148.77006,92.176485 132.90664,71.883557 107.26588,76.287371 95.155093,98.133704 m 9.928697,11.914436 3.97148,5.95722 h 1.98574 c 4.10865,-20.030036 18.21483,-27.565342 35.74331,-17.871656 -14.19013,-16.804719 -36.90685,-8.593189 -41.70053,11.914436 m 13.90018,13.90018 h 3.97148 l 13.90017,-27.800356 c -15.96578,-2.310011 -21.11971,15.194416 -17.87165,27.800356 m 29.78609,-29.786095 1.98574,1.985739 -1.98574,-1.985739 m 1.98574,3.971479 13.90018,5.957216 v -1.98574 L 150.7558,98.133704 m -57.586446,1.985736 1.985739,1.98574 -1.985739,-1.98574 m 37.729056,11.91444 9.92869,-11.91444 -9.92869,11.91444 m 236.30301,-9.9287 9.9287,7.94296 v 17.87166 h 1.98574 v -11.91444 c 9.0008,5.58435 7.93575,14.1006 7.94295,23.82887 l -5.95722,-11.91443 h -1.98573 v 5.95721 l -7.94296,-9.92869 h -1.98574 l 1.98574,7.94296 -19.8574,-7.94296 v 1.98574 l 7.94296,7.94295 -21.84314,-7.94295 c 6.43626,-9.37208 22.40079,-11.22041 29.7861,-1.98574 h 1.98574 l -1.98574,-21.84314 m -315.732598,5.95722 1.98574,1.98574 -1.98574,-1.98574 m 302.494368,1.32381 0.66186,1.32388 -0.66186,-1.32388 m -264.765314,0.66193 c -7.18111,8.98329 -14.516253,11.56123 -25.814615,11.91444 v 1.98574 l -1.98574,3.97148 v 1.98574 L 87.212136,117.9911 71.326218,137.84849 v 1.98574 l 17.871657,-7.94295 3.971479,17.87165 v 11.91444 c 8.937556,-3.76218 13.175676,-3.15494 19.857396,3.97148 h 1.98574 L 94.920419,137.84849 89.197875,110.04814 m -30.447981,10.5906 1.323793,0.66195 -1.323793,-0.66195 m 348.166316,7.28106 v 1.98574 l 23.82887,21.84313 -25.81461,-15.88592 v 1.98574 l 25.81461,17.87166 -5.95721,11.91444 21.84313,-1.98574 c -0.57012,1.59506 -2.01826,4.3835 -2.06312,6.33185 -0.45692,19.8447 27.77545,1.49937 8.02034,-6.33185 l 1.98574,-7.94296 h -1.98574 l -1.98574,5.95722 -15.88592,-11.91444 7.94296,1.98574 1.98574,-1.98574 v -3.97148 L 406.91621,127.9198 m 24.49082,7.28107 0.66187,1.32379 -0.66187,-1.32379 m -348.166374,0.66188 v 1.98574 l 5.957219,1.98574 -5.957219,-3.97148 m 5.957219,5.95722 -7.942959,3.97148 -7.942958,19.8574 c 8.610921,-4.57546 17.850945,-13.32384 15.885917,-23.82888 m 313.746855,0 c 1.94253,11.73286 6.07104,23.72209 19.8574,21.84314 -4.65807,-4.23463 -18.56232,-13.19725 -13.90018,-19.8574 l -5.95722,-1.98574 m -37.72905,3.97148 v 1.98574 l 17.87165,11.91444 c -3.55411,-8.391 -9.38007,-11.28659 -17.87165,-13.90018 m 25.81461,3.97148 c 2.55235,10.425 6.00049,16.97522 -3.97148,23.82888 v 1.98574 l 19.8574,-3.97148 -9.9287,-21.84314 h -5.95722 m 69.50089,0 1.98574,1.98574 -1.98574,-1.98574 m -369.347566,1.98574 -21.843135,23.82888 c 8.942778,-5.34303 20.335939,-12.83461 21.843135,-23.82888 m 309.775376,1.98574 1.98574,1.98574 -1.98574,-1.98574 m 1.98574,3.97148 1.98574,1.98574 -1.98574,-1.98574 m -335.589991,1.98574 v 9.9287 h 1.98574 l -1.98574,-9.9287 m 337.575731,1.98574 c 5.86657,14.56288 3.122,30.93002 15.88592,41.70053 -7.13218,-14.28992 -5.30661,-21.27009 0,-35.74331 l -15.88592,-5.95722 m -289.91798,5.95722 1.98574,1.98574 -1.98574,-1.98574 m -33.757574,11.91444 -5.957219,11.91443 7.942959,-5.95722 c -4.19414,12.28856 -12.52271,26.70641 -25.814615,29.7861 l -23.828875,33.75757 21.843135,-15.88592 c -4.451909,17.09474 -11.213253,33.31815 -27.800354,41.70054 l 5.957219,-25.81462 -11.914438,3.97148 21.980271,-33.99251 13.763042,-5.72228 h 1.98574 c 1.144739,-10.64279 8.404801,-14.90746 15.885916,-21.84314 l -15.885916,3.97148 C 53.5189,211.28309 38.189943,223.85479 21.682728,227.20678 L 41.540124,213.3066 v -1.98574 L 25.654207,213.3066 C 32.530805,199.70563 47.84608,189.91318 61.39752,183.5205 v 11.91444 h 1.98574 l 17.871657,-15.88591 m 377.290523,9.92869 c -4.31466,9.69295 -3.69538,16.43315 5.95722,21.84314 v -1.98574 c -5.86171,-5.93708 -6.21676,-8.7 -1.98574,-15.88592 v 11.91444 h 1.98574 l -1.98574,-15.88592 h -3.97148 m -375.304784,5.95722 9.928698,35.74332 c -12.25664,-7.23167 -17.783013,-23.1222 -9.928698,-35.74332 m -7.942959,13.90018 -1.985738,9.9287 9.928697,27.80035 -7.942959,-1.98574 5.957219,21.84314 -9.928698,-5.95722 c -5.115742,18.62417 -11.397907,56.52477 -27.800354,67.51515 1.451099,-12.22225 -3.562218,-45.35755 13.900177,-47.65776 l 13.900177,-45.67201 h -1.985739 l -11.914438,29.7861 -1.98574,-19.8574 15.885917,-21.84313 h -1.985739 l -11.914438,15.88591 c 0.116364,-13.5598 5.838988,-19.40466 13.900177,-29.78609 h 3.971479 m 361.404603,0 c 9.59849,14.28587 13.63858,49.60598 6.29841,65.52941 -6.97584,15.13302 -18.53225,24.19294 -20.19858,41.70053 h -1.98574 l 9.92869,-59.57219 5.95722,9.9287 h 1.98574 l -1.98574,-57.58645 m 13.90018,0 9.9287,21.84314 c 1.59179,-10.14644 -1.19726,-16.39471 -9.9287,-21.84314 m -37.72905,1.98574 -1.98574,7.94296 c 5.99874,-1.29204 6.1274,-3.80134 1.98574,-7.94296 m -341.547212,7.94296 1.98574,1.98574 -1.98574,-1.98574 m 385.233482,15.88591 9.9287,11.91444 -9.9287,-11.91444 m 17.87166,13.90018 1.98574,1.98574 -1.98574,-1.98574 m -420.976798,3.97148 c -0.01191,19.94117 -3.231493,36.78571 -19.857396,49.64349 1.793738,-20.56156 4.231571,-34.79282 19.857396,-49.64349 m 16.547823,5.29533 0.661947,1.3238 -0.661947,-1.3238 m 396.486015,4.63337 1.98574,1.98574 -1.98574,-1.98574 m -389.204963,5.95722 5.95289,23.82887 18.428353,43.68627 15.33355,27.80036 C 98.757066,347.69514 90.503141,322.93152 82.28482,300.67914 78.644086,290.82135 74.126369,279.3686 77.283437,268.90731 m 337.575733,9.9287 c -0.0219,29.36194 -17.16954,59.06685 -36.85672,80.32926 -11.31838,12.22397 -27.72871,22.92508 -36.61565,36.82937 12.16357,-5.61106 22.61658,-11.09518 35.74332,-5.95722 10.90079,-19.90968 34.86911,-33.25015 57.58644,-29.78609 l -21.84313,9.02419 -27.80036,12.81894 v 1.98574 c 12.83217,-2.32988 25.61519,-3.50927 37.72906,1.98574 v 1.98574 l -57.58645,9.9287 v 1.98574 c 12.39312,0 30.07941,-3.72729 37.72905,7.94296 -22.15194,-0.63093 -38.43351,-2.72038 -59.57219,5.95722 v 1.98574 c 15.71928,-1.96171 30.91181,-0.94754 41.70053,11.91444 -25.93878,-2.41546 -43.16565,-9.06792 -69.50088,-1.98574 l -7.94296,-5.95722 v 1.98574 c 5.16209,6.01661 -4.93629,8.91243 -9.9287,9.92869 l -7.94296,-5.95721 v 1.98574 l 3.97148,5.95721 -17.87165,-3.97148 v 1.98574 l 5.95721,1.98574 -43.68627,25.81462 7.94296,21.84313 c -17.31515,-6.69919 -27.17931,-23.92994 -35.74331,-39.71479 l 21.84313,11.91444 c -8.67426,-9.74363 -9.46467,-14.56647 0,-23.82888 -13.0883,5.53285 -42.11102,22.22651 -49.64349,1.98574 l 27.80036,1.98574 v -1.98574 c -5.72959,-0.30074 -12.05382,-0.46158 -17.47254,-2.57465 -7.07934,-2.76055 -17.57489,-14.15365 -12.31355,2.57465 l -11.91444,1.98574 v 1.98574 c 19.56974,5.01267 35.25518,29.68721 9.9287,39.7148 5.66732,-10.92642 8.40285,-15.33331 0,-25.81462 l 3.97147,13.90018 c -24.54685,-15.33863 -44.8065,-21.18284 -73.47236,-13.90018 3.4758,-14.87122 14.94891,-22.80824 29.78609,-23.82887 5.49067,8.64519 11.10575,5.79784 15.88592,-1.98574 l 9.9287,3.97148 c 3.22508,-19.53198 -8.58743,-21.9347 -20.83748,-33.30197 -5.04366,-4.68023 -7.6391,-12.38422 -10.93436,-18.32726 h -1.98573 l -5.95722,11.91443 c -2.17618,-3.93478 -3.3343,-7.38603 -3.72402,-11.94327 -0.27548,-3.22156 -0.35604,-6.62504 0.0649,-9.83755 3.29726,-25.16716 34.53376,1.30022 47.34544,1.92343 v 1.98574 h -3.97148 v 1.98574 l 35.74331,5.95722 v 1.98573 h -9.9287 c 12.86144,11.71212 21.50094,11.73684 37.72906,7.94296 l -15.88592,9.9287 v 1.98574 l 37.72905,-5.95722 -9.9287,13.90018 31.77184,-11.91444 -9.9287,15.88592 29.78609,-17.87166 -3.97148,11.91444 23.82888,-13.90018 -5.95722,13.90018 19.8574,-15.88592 h 1.98574 v 7.94296 c 24.50984,-19.04735 50.21278,-40.35515 66.00002,-67.51515 9.22992,-15.87896 11.14834,-37.08978 21.37252,-51.62922 m -357.43313,1.98573 v 7.94296 h 1.98574 l -1.98574,-7.94296 m 403.10514,3.97148 v 1.98574 c -13.39519,5.49159 -22.33284,13.33996 -29.7861,25.81462 -3.32583,-16.38104 16.00586,-26.85244 29.7861,-27.80036 M 73.312038,296.70766 v 17.87166 h -3.97148 l 3.97148,-17.87166 m -9.928698,5.95722 c 7.260182,16.00542 5.283378,39.28873 -7.942958,51.62923 -0.002,-19.81282 -2.827316,-33.71138 7.942958,-51.62923 m 391.1907,7.94296 v 1.98574 l -53.61497,27.80035 c 12.81394,-12.13144 34.7976,-32.96564 53.61497,-29.78609 m -35.74331,3.97148 v 1.98574 l -7.94296,3.97148 7.94296,-5.95722 M 71.326298,328.4795 c 7.309765,12.49844 11.088489,37.65516 -1.98574,47.65775 -0.566114,-18.18159 -8.102512,-30.04097 1.98574,-47.65775 m 15.885916,3.97147 -1.985739,13.90018 h -1.98574 v -13.90018 h 3.971479 m 359.418866,7.94296 -47.65775,21.84314 1.98574,-5.95722 -13.90018,1.98574 v -1.98574 h 15.88592 c 7.59875,-9.44519 33.21781,-29.74112 43.68627,-15.88592 m -363.390345,9.9287 c 11.018988,14.03866 10.130628,28.91559 7.942959,45.67201 h -3.97148 l -9.928698,-21.84313 5.957219,-23.82888 m 15.885917,0 1.985738,15.88592 h -1.985738 v -15.88592 m -1.98574,17.87166 53.614968,47.65775 v 1.98574 c -30.40463,-5.033 -31.89147,-34.61881 -55.600707,-47.65775 l 1.985739,-1.98574 m 0,3.97148 16.697748,28.92756 21.0313,20.71593 v 1.98574 l -39.714787,-31.77184 1.985739,-19.85739 m 64.867478,0.66194 1.32387,0.66187 -1.32387,-0.66187 m 221.07902,-0.66194 -11.91443,3.97148 11.91443,-3.97148 m -232.33153,7.94295 -3.97148,-3.97147 h -1.98574 l 7.94296,15.88591 -5.95722,-1.98574 23.82888,15.88592 -3.97148,-7.94296 13.90017,3.97148 c -10.56123,-9.88515 -29.48096,-6.09908 -21.84313,-25.81461 -5.38376,-1.14494 -6.74083,-1.52408 -7.94296,3.97147 m 15.88592,-3.97147 c 12.59588,18.00543 23.63981,25.7693 45.67201,25.81461 v -1.98574 c -22.1325,-0.14099 -28.22759,-13.77134 -45.67201,-23.82887 m -5.95722,1.98574 1.98574,1.98573 -1.98574,-1.98573 m 222.40283,5.95721 1.98574,1.98574 -1.98574,-1.98574 m -57.58644,13.90018 -9.9287,13.90018 9.9287,-13.90018 m 11.91443,0 -1.98574,3.97148 1.98574,-3.97148 m 7.94296,0 v 1.98574 l 9.9287,1.98574 v -1.98574 l -9.9287,-1.98574 m 17.87166,1.98574 1.98574,1.98574 -1.98574,-1.98574 m -184.67378,3.97148 13.90017,11.91444 3.97148,-5.95722 -17.87165,-5.95722 m 107.22993,1.98574 1.98574,1.98574 -1.98574,-1.98574 m 17.87166,0 -21.84314,9.9287 1.98574,-5.95722 -19.85739,9.9287 v 1.98574 c 11.727,-0.18408 37.80989,-1.13007 39.71479,-15.88592 m -77.44384,7.94296 v 1.98574 l 13.90017,-5.95722 -13.90017,3.97148 m 33.75757,-1.98574 -1.98574,3.97148 1.98574,-3.97148 m 69.50088,0 v 1.98574 l 9.9287,1.98574 -9.9287,-3.97148 m -107.89186,4.63342 1.32387,0.66187 -1.32387,-0.66187 m 32.43376,-0.66194 -21.84314,11.91444 v 1.98573 h 15.88592 l 15.88592,-3.97147 V 423.795 h -15.88592 l 7.94296,-5.95722 -1.98574,-1.98574 m 31.10991,8.6049 1.32387,0.66187 -1.32387,-0.66187 m -17.87166,1.98574 1.32387,0.66187 -1.32387,-0.66187 m -102.59653,1.3238 3.97148,5.95721 -3.97148,-5.95721 m 89.35828,0 v 1.98573 l 19.8574,5.95722 v -1.98574 l -19.8574,-5.95721 m 19.19547,0.66194 1.32387,0.66187 -1.32387,-0.66187 m 86.04873,13.23823 c -14.26657,-4.87749 -28.41314,-10.95113 -43.68627,-7.94296 10.35642,-12.94972 36.67291,-4.77163 43.68627,7.94296 m -147.60666,-11.25249 1.32387,0.66187 -1.32387,-0.66187 m 20.51932,3.30953 v 1.98574 l 9.9287,-1.98574 h -9.9287 m 11.91444,0 v 1.98574 h 5.95722 l -5.95722,-1.98574 m -9.9287,13.90018 25.81462,-11.91444 -25.81462,11.91444 m -117.15863,-5.95722 v 1.98574 l 23.82887,-1.98574 h -23.82887 m 220.41709,15.88592 -43.68627,-13.90018 c 12.83642,-14.94054 36.45737,0.87945 43.68627,13.90018 m -79.42958,-15.88592 -1.98574,3.97148 1.98574,-3.97148 m -35.74331,33.75758 c -17.21426,-4.51226 -25.06784,-14.67198 -27.80036,-31.77184 18.85799,1.40593 23.9199,15.33567 27.80036,31.77184 m 29.12416,-29.12415 1.32388,0.66186 -1.32388,-0.66186 m 64.2056,21.18119 c -14.92522,-5.31716 -28.56773,-5.09354 -39.71479,-17.87166 15.05224,-5.84516 36.45184,0.48172 39.71479,17.87166 m -69.50089,-19.8574 1.98574,1.98574 -1.98574,-1.98574 m 41.70053,27.80036 c -13.60807,-3.26978 -22.73644,-7.37562 -29.78609,-19.8574 16.43865,-4.62826 25.53816,4.09015 29.78609,19.8574 m -21.84313,5.95721 c -11.07265,-3.74027 -18.75865,-9.19445 -23.82888,-19.85739 15.71231,-6.56285 20.79657,6.3493 23.82888,19.85739 m 29.78609,-11.91443 5.95722,9.92869 c -5.27873,-2.44774 -8.84546,-4.16848 -5.95722,-9.92869 z"
       style="fill:#000000;stroke:none;stroke-width:1.98574;fill-opacity:1"
       id="path1-2" /><g
       id="g1"
       transform="matrix(1.7863155,-0.0638562,0.06643024,1.7170995,142.40911,173.12521)"
       style="fill:#ffffff"><path
         d="M 29.821391,96.190119 2.3825664,49.352902 -2.9049574,52.736834 32.344491,112.11704 C 38.50083,105.59743 45.086296,99.741229 52.398866,94.990946 59.153615,90.609385 66.4935,87.213529 74.652483,85.157851 68.408235,84.45206 62.212569,84.958102 56.22092,86.541326 c -7.548689,1.993419 -14.791899,5.690902 -21.449033,10.772163 -1.510593,1.14264 -3.588283,0.85418 -4.657927,-0.63052 -0.117942,-0.15903 -0.213784,-0.32049 -0.292569,-0.49285 z M 78.260629,-2.573142 c -0.09777,-0.1250433 -0.200575,-0.2585841 -0.291372,-0.4115383 -0.08575,-0.1444568 -0.162977,-0.2943714 -0.223145,-0.455202 L 72.136869,-12.889052 C 65.111546,-9.260658 58.68863,-4.1416813 54.043568,1.9501257 49.705053,7.6464098 46.941167,14.21107 46.758716,21.199106 L 78.709203,75.021979 C 81.660454,68.654001 85.065584,62.792897 89.111594,57.694211 93.72265,51.882134 99.141407,47.054029 105.65109,43.568032 Z m 3.799396,-6.9811316 7.794834,-4.9885714 c 1.586257,-1.01518 3.635711,-0.556215 4.573948,1.024312 l 39.173903,65.991227 c 0.93824,1.580526 0.41216,3.687793 -1.1741,4.702972 -0.32408,0.207403 -0.66989,0.358362 -1.02038,0.441963 -9.37348,2.844663 -18.2418,6.421348 -26.16071,11.418972 -7.722763,4.87209 -14.604693,11.140802 -20.310103,19.470736 -0.290945,0.620051 -0.761453,1.155683 -1.354947,1.523784 -0.574878,0.379639 -1.247157,0.575373 -1.919907,0.57207 -9.727264,1.53501 -18.216755,5.115487 -25.878983,10.089549 -7.858379,5.09959 -14.912323,11.71291 -21.580507,19.13466 -0.22943,0.28754 -0.51471,0.54047 -0.838784,0.74787 -1.564156,1.01276 -3.613611,0.5538 -4.551848,-1.02673 L -10.366503,53.548814 c -0.938237,-1.580526 -0.412156,-3.687793 1.1741014,-4.702973 l 8.19566185,-5.245094 -5.62869285,-9.600881 c -0.8086456,-1.382045 -0.5123574,-3.142911 0.63105,-4.249897 v 0 C 0.63699535,23.336734 10.062501,17.843942 19.947741,15.762253 c 6.830027,-1.439681 13.899957,-1.285764 20.498202,1.245475 1.018072,-6.948259 4.051485,-13.4157207 8.398528,-19.117463 5.938281,-7.7988752 14.359931,-14.150108 23.396321,-18.256478 1.553812,-0.712998 3.308624,-0.135822 4.135887,1.257761 v 0 l 5.674818,9.5596364 z m 2.424136,87.8219946 c 5.173195,-6.054581 11.033972,-10.931055 17.399179,-14.957783 7.36806,-4.656812 15.37097,-8.125222 23.74679,-10.90596 L 90.385725,-6.967732 85.464916,-3.8184922 113.31945,43.104448 c 0.93824,1.580526 0.41215,3.687793 -1.1741,4.702973 -0.23027,0.147364 -0.46713,0.263779 -0.71061,0.349243 C 104.55575,51.19893 98.942287,55.917123 94.245586,61.842642 90.466602,66.618 87.272285,72.180028 84.484161,78.267721 Z M 72.633275,78.148306 40.960223,24.792793 C 34.807157,21.425537 27.834052,20.998591 21.087384,22.4201 13.440824,24.030578 6.1213293,27.976219 0.52960895,32.750855 L 33.906388,89.729748 c 6.519335,-4.500592 13.534313,-7.829221 20.851541,-9.756589 5.816404,-1.541424 11.815812,-2.17983 17.875346,-1.824853 z"
         id="path1"
         style="fill:#000000;fill-opacity:1" /></g></g></svg>
